<?xml version="1.0" encoding="UTF-8"?>
<!DOCTYPE svg PUBLIC "-//W3C//DTD SVG 1.1//EN" "http://www.w3.org/Graphics/SVG/1.1/DTD/svg11.dtd">
<svg xmlns="http://www.w3.org/2000/svg" version="1.1" width="165px" height="165px" style="shape-rendering:geometricPrecision; text-rendering:geometricPrecision; image-rendering:optimizeQuality; fill-rule:evenodd; clip-rule:evenodd" xmlns:xlink="http://www.w3.org/1999/xlink">
<g><path style="opacity:1" fill="#005089" d="M 68.5,44.5 C 90.1692,44.3334 111.836,44.5 133.5,45C 151.087,53.3379 158.253,67.1712 155,86.5C 152.537,98.2989 145.703,106.466 134.5,111C 125.958,112.974 117.292,113.974 108.5,114C 105.5,117 102.5,120 99.5,123C 89.1667,123.667 78.8333,123.667 68.5,123C 78.1971,113.637 87.5304,103.97 96.5,94C 106.5,93.6667 116.5,93.3333 126.5,93C 132.919,91.5793 135.919,87.5793 135.5,81C 135.937,75.2521 133.604,71.2521 128.5,69C 113.822,68.8328 99.1553,68.3328 84.5,67.5C 78.3921,60.2528 73.0587,52.5861 68.5,44.5 Z"/></g>
<g><path style="opacity:1" fill="#44e1f2" d="M 43.5,44.5 C 48.544,44.1725 53.544,44.5059 58.5,45.5C 64.1518,53.1485 70.1518,60.4819 76.5,67.5C 64.1801,68.3326 51.8468,68.8326 39.5,69C 36.2553,70.9806 34.0886,73.8139 33,77.5C 30.7912,85.7486 32.2912,93.2486 37.5,100C 51.7521,101.134 66.0854,101.968 80.5,102.5C 73.3477,109.152 66.3477,115.985 59.5,123C 22.9538,128.782 5.78712,113.282 8,76.5C 11.9792,56.6694 23.8125,46.0028 43.5,44.5 Z"/></g>
</svg>
